<svg width="194" height="58" viewBox="0 0 194 58" fill="none" xmlns="http://www.w3.org/2000/svg">
<g clip-path="url(#clip0_43_14)">
<path d="M53.0916 36.6302C49.939 36.6302 46.9849 35.2947 44.301 33.1206L44.9545 30.0516L44.983 29.9378C45.5649 26.6701 47.4111 21.1851 53.0916 21.1851C57.3516 21.1851 60.8167 24.6522 60.8167 28.9147C60.8023 33.1631 57.3376 36.6302 53.0916 36.6302ZM53.0916 13.3563C45.8347 13.3563 40.2115 18.0736 37.9254 25.8316C34.4318 20.5885 31.7903 14.2941 30.2426 8.99414H22.4322V29.3267C22.4322 33.3337 19.166 36.6014 15.1613 36.6014C11.1566 36.6014 7.89078 33.3337 7.89078 29.3267V8.99414H0.0796017V29.3267C0.0511864 37.6533 6.82501 44.4875 15.1465 44.4875C23.4684 44.4875 30.2422 37.6533 30.2422 29.3267V25.9169C31.7615 29.0853 33.6218 32.2821 35.8798 35.1241L31.0939 57.6304H39.0893L42.554 41.3047C45.5929 43.2513 49.0865 44.4735 53.0912 44.4735C61.654 44.4735 68.6268 37.4543 68.6268 28.8862C68.6268 20.3326 61.6544 13.3563 53.0916 13.3563Z" fill="#6FDA44"/>
<path d="M92.4698 14.2373L97.5111 34.5699L103.064 14.2373H109.681L101.147 43.621H94.529L89.2892 23.1602L84.0631 43.6065H77.4457L68.9105 14.2233H75.5283L81.0806 34.5559L86.1219 14.2233H92.4695V14.2377L92.4698 14.2373ZM125.515 13.3563C116.924 13.3563 109.965 20.3326 109.965 28.9147C109.965 37.5112 116.938 44.4735 125.515 44.4735C134.107 44.4735 141.079 37.5112 141.079 28.9147C141.079 20.3186 134.107 13.3563 125.515 13.3563ZM125.515 38.0795C120.46 38.0795 116.37 33.9873 116.37 28.9291C116.37 23.8706 120.474 19.7788 125.515 19.7788C130.571 19.7788 134.66 23.8706 134.66 28.9291C134.66 33.9732 130.571 38.0795 125.515 38.0795ZM159.98 20.816C155.535 20.816 151.943 24.4248 151.943 28.8579V43.6065H145.282V14.2373H151.943V18.7556C151.943 18.7556 154.783 14.2229 160.619 14.2229H162.664V20.816H159.98ZM182.332 27.7782C187.061 25.1068 190.27 20.0343 190.27 14.2229H183.61C183.61 19.1249 179.634 23.1034 174.735 23.1034H173.84V0.0568848H167.18V43.6062H173.84V29.7673H174.635C175.289 29.7673 176.141 30.1938 176.524 30.7192L185.982 43.6065H193.962L182.332 27.7782Z" fill="white"/>
</g>
<defs>
<clipPath id="clip0_43_14">
<rect width="194" height="58" fill="white"/>
</clipPath>
</defs>
</svg>
